<mxfile host="app.diagrams.net" modified="2023-08-12T13:46:13.701Z" agent="Mozilla/5.0 (Macintosh; Intel Mac OS X 10_15_7) AppleWebKit/605.1.15 (KHTML, like Gecko) Version/16.4 Safari/605.1.15" version="21.6.8" etag="TdjdzbzSGbxm3GHoAyNw" type="github">
  <diagram name="第 1 页" id="RXVFJXYVq1Qlkt5zkLjt">
    <mxGraphModel>
      <root>
        <mxCell id="0" />
        <mxCell id="1" parent="0" />
      </root>
    </mxGraphModel>
  </diagram>
</mxfile>
